<svg xmlns="http://www.w3.org/2000/svg" xmlns:xlink="http://www.w3.org/1999/xlink" width="500" zoomAndPan="magnify" viewBox="0 0 375 374.999991" height="500" preserveAspectRatio="xMidYMid meet" version="1.0"><defs><g/><clipPath id="4be9e956a8"><path d="M 113.957031 159.652344 L 288 159.652344 L 288 215.347656 L 113.957031 215.347656 Z M 113.957031 159.652344 " clip-rule="nonzero"/></clipPath><clipPath id="153ffaa9b8"><path d="M 187.5 169 L 234 169 L 234 215.292969 L 187.5 215.292969 Z M 187.5 169 " clip-rule="nonzero"/></clipPath></defs><g clip-path="url(#4be9e956a8)"><path fill="#ffffff" d="M 113.957031 159.652344 L 288 159.652344 L 288 215.347656 L 113.957031 215.347656 Z M 113.957031 159.652344 " fill-opacity="1" fill-rule="nonzero"/></g><g fill="#0b1320" fill-opacity="1"><g transform="translate(111.200051, 195.725829)"><g><path d="M 6.28125 -15.640625 L 0.296875 -15.640625 L 0.296875 -17.765625 L 14.734375 -17.765625 L 14.734375 -15.640625 L 8.6875 -15.640625 L 8.6875 0 L 6.28125 0 Z M 6.28125 -15.640625 "/></g></g></g><g fill="#0b1320" fill-opacity="1"><g transform="translate(126.235573, 195.725829)"><g><path d="M 10.890625 -7.296875 L 8.265625 -15.125 L 8.21875 -15.125 L 5.359375 -7.296875 Z M 4.625 -5.171875 L 2.765625 0 L 0.296875 0 L 6.984375 -17.765625 L 9.703125 -17.765625 L 16.140625 0 L 13.515625 0 L 11.765625 -5.171875 Z M 4.625 -5.171875 "/></g></g></g><g fill="#0b1320" fill-opacity="1"><g transform="translate(142.74564, 195.725829)"><g><path d="M 4.375 0 L 2 0 L 2 -17.765625 L 4.375 -17.765625 L 4.375 -9.15625 L 12.984375 -17.765625 L 16.3125 -17.765625 L 8.90625 -10.59375 L 16.515625 0 L 13.421875 0 L 7.203125 -8.90625 L 4.375 -6.234375 Z M 4.375 0 "/></g></g></g><g fill="#0b1320" fill-opacity="1"><g transform="translate(159.376571, 195.725829)"><g><path d="M 15.125 0 L 2 0 L 2 -17.765625 L 14.953125 -17.765625 L 14.953125 -15.640625 L 4.40625 -15.640625 L 4.40625 -10.203125 L 14.125 -10.203125 L 14.125 -8.078125 L 4.40625 -8.078125 L 4.40625 -2.125 L 15.125 -2.125 Z M 15.125 0 "/></g></g></g><g fill="#0b1320" fill-opacity="1"><g transform="translate(175.467216, 195.725829)"><g/></g></g><g fill="#0b1320" fill-opacity="1"><g transform="translate(181.510433, 195.725829)"><g/></g></g><g fill="#0b1320" fill-opacity="1"><g transform="translate(187.553649, 195.725829)"><g/></g></g><g fill="#0b1320" fill-opacity="1"><g transform="translate(193.596865, 195.725829)"><g/></g></g><g fill="#0b1320" fill-opacity="1"><g transform="translate(199.640081, 195.725829)"><g/></g></g><g fill="#0b1320" fill-opacity="1"><g transform="translate(205.683298, 195.725829)"><g/></g></g><g fill="#0b1320" fill-opacity="1"><g transform="translate(211.726514, 195.725829)"><g/></g></g><g fill="#0b1320" fill-opacity="1"><g transform="translate(217.76973, 195.725829)"><g/></g></g><g fill="#0b1320" fill-opacity="1"><g transform="translate(223.812946, 195.725829)"><g/></g></g><g fill="#0b1320" fill-opacity="1"><g transform="translate(229.856163, 195.725829)"><g/></g></g><g fill="#0b1320" fill-opacity="1"><g transform="translate(235.899379, 195.725829)"><g/></g></g><g fill="#0b1320" fill-opacity="1"><g transform="translate(241.946739, 195.725829)"><g><path d="M 15.8125 -8.875 C 15.8125 -10.957031 15.257812 -12.679688 14.15625 -14.046875 C 13.0625 -15.421875 11.550781 -16.109375 9.625 -16.109375 C 7.726562 -16.109375 6.222656 -15.421875 5.109375 -14.046875 C 3.992188 -12.679688 3.4375 -10.957031 3.4375 -8.875 C 3.4375 -6.738281 4 -5 5.125 -3.65625 C 6.257812 -2.320312 7.757812 -1.65625 9.625 -1.65625 C 11.457031 -1.65625 12.945312 -2.304688 14.09375 -3.609375 C 15.238281 -4.921875 15.8125 -6.675781 15.8125 -8.875 Z M 18.28125 -8.875 C 18.28125 -6.226562 17.515625 -4.007812 15.984375 -2.21875 C 14.453125 -0.425781 12.332031 0.46875 9.625 0.46875 C 6.90625 0.46875 4.78125 -0.425781 3.25 -2.21875 C 1.726562 -4.007812 0.96875 -6.226562 0.96875 -8.875 C 0.96875 -11.539062 1.726562 -13.765625 3.25 -15.546875 C 4.78125 -17.335938 6.90625 -18.234375 9.625 -18.234375 C 12.414062 -18.234375 14.554688 -17.320312 16.046875 -15.5 C 17.535156 -13.6875 18.28125 -11.476562 18.28125 -8.875 Z M 18.28125 -8.875 "/></g></g></g><g fill="#0b1320" fill-opacity="1"><g transform="translate(261.200434, 195.725829)"><g><path d="M 4.40625 0 L 2 0 L 2 -17.765625 L 14.3125 -17.765625 L 14.3125 -15.640625 L 4.40625 -15.640625 L 4.40625 -10.203125 L 13.109375 -10.203125 L 13.109375 -8.078125 L 4.40625 -8.078125 Z M 4.40625 0 "/></g></g></g><g fill="#0b1320" fill-opacity="1"><g transform="translate(275.994228, 195.725829)"><g><path d="M 4.40625 0 L 2 0 L 2 -17.765625 L 14.3125 -17.765625 L 14.3125 -15.640625 L 4.40625 -15.640625 L 4.40625 -10.203125 L 13.109375 -10.203125 L 13.109375 -8.078125 L 4.40625 -8.078125 Z M 4.40625 0 "/></g></g></g><g clip-path="url(#153ffaa9b8)"><path fill="#0b1320" d="M 187.613281 177.367188 L 189.503906 175.378906 C 190.609375 174.273438 192.472656 174.65625 192.472656 174.65625 L 198.003906 175.414062 L 200.808594 172.671875 C 202.28125 171.222656 203.613281 173.441406 203.035156 174.207031 L 201.597656 175.878906 L 207.554688 176.980469 L 209.574219 174.625 C 211.738281 172.039062 213.34375 174.367188 212.367188 175.738281 L 211.0625 177.390625 L 220.011719 178.558594 C 227.707031 171.152344 230.851562 168.082031 232.875 169.90625 C 234.914062 171.742188 231.308594 175.402344 224.296875 182.625 L 225.570312 191.847656 L 227.445312 190.285156 C 228.550781 189.363281 230.519531 190.839844 228.488281 192.765625 L 225.910156 195.199219 L 226.996094 201.234375 L 228.609375 199.992188 C 230.03125 198.859375 231.757812 200.359375 229.835938 202.414062 L 227.277344 204.996094 C 227.171875 205.074219 228.113281 210.289062 228.113281 210.289062 C 228.691406 212.84375 227.25 213.777344 227.25 213.777344 L 225.492188 215.3125 L 218.8125 196.441406 C 218.257812 194.785156 216.855469 192.980469 214.511719 193.195312 C 213.273438 193.324219 210.144531 195.4375 209.722656 195.9375 L 202.476562 202.90625 C 202.292969 203.035156 203.59375 211.960938 203.59375 211.960938 C 203.59375 212.222656 201.296875 215.234375 201.296875 215.234375 L 196.707031 207.066406 L 194.4375 208.121094 L 195.765625 206.054688 L 187.5 201.390625 L 190.597656 199.125 C 192.074219 199.46875 199.8125 200.335938 199.96875 200.257812 C 199.96875 200.257812 206.273438 194.007812 206.632812 193.632812 C 208.714844 191.445312 209.414062 190.625 209.730469 189.546875 C 210.046875 188.464844 209.507812 186.878906 206.238281 184.875 C 201.734375 182.105469 187.613281 177.367188 187.613281 177.367188 Z M 187.613281 177.367188 " fill-opacity="1" fill-rule="nonzero"/></g></svg>